<svg width="216" height="210" viewBox="0 0 216 210" fill="none" xmlns="http://www.w3.org/2000/svg">
<g clip-path="url(#clip0_3_232)">
<path d="M154.485 159.73C153.838 160.459 153.733 160.827 153.428 161.057C129.939 171.776 105.884 173.463 81.6946 163.777C75.5803 161.346 70.2225 157.382 65.7843 152.291C56.177 141.46 54.8113 126.313 62.241 113.969C66.0766 107.513 70.8746 102.009 77.9599 98.9519C81.1302 100.538 84.2322 102.223 87.3393 103.473C92.418 105.487 97.5855 105.658 102.584 103.076C106.332 101.248 108.381 98.2564 107.875 95.566C107.212 92.0349 104.415 90.1186 101.229 89.8407C96.8029 89.4453 92.3031 89.5857 87.9348 89.9627C85.112 90.2265 82.2473 91.194 79.5192 91.9622C69.3919 82.5334 71.906 68.5794 85.345 59.0332C87.2167 59.7294 89.1882 60.494 91.1281 61.0905C98.3884 63.1343 105.411 62.5249 111.608 57.9796C113.978 56.2338 115.986 53.9463 115.254 50.5149C114.68 47.9242 111.883 46.0079 107.993 45.6869C101.821 45.268 96.0603 47.035 90.494 49.3749C88.5703 50.2546 86.6465 51.1343 84.8227 52.0824C68.7066 38.1112 67.044 13.9702 84.5567 3.40573C83.1897 2.61572 82.1591 1.76316 81.2865 1.75136C80.2457 1.77082 79.0947 2.59387 78.2801 3.35438C70.8753 10.7347 66.4777 19.2961 68.2312 30.0205C69.4794 38.0545 72.8194 45.1776 77.7101 51.7514C78.4043 52.6665 79.0984 53.5816 79.7243 54.5964C79.8242 54.6648 79.7875 54.9327 79.8139 55.5368C79.0992 56.3658 78.3478 57.4626 77.3966 58.4225C66.1451 70.3464 64.9597 79.7899 73.2118 94.5269C71.9924 95.4497 70.6365 96.5718 69.249 97.5259C61.3917 103.424 55.9319 110.965 53.2011 120.522C48.7214 136.059 54.0088 151.695 67.1801 162.038C74.3309 167.669 82.4117 171.301 91.249 173.399C112.64 178.385 133.304 176.719 153.062 166.52C154.108 166.065 155.122 165.441 156.168 164.985C156.337 164.954 156.605 164.991 157.409 165.103C155.886 169.041 153.4 172.026 151.014 175.08C148.797 178.102 146.311 181.088 143.789 184.341C146.591 185.821 148.546 185.11 150.307 183.825C152.273 182.242 154.438 180.795 155.904 178.869C159.793 173.622 163.65 168.206 167.107 162.517C169.745 158.024 168.267 155.253 163.472 154.753C153.279 153.776 143.018 152.899 132.756 152.023C131.079 151.899 129.465 152.112 127.315 152.251C128.215 155.651 130.36 155.948 132.337 156.277C139.644 157.181 146.746 158.384 154.485 159.73ZM110.208 51.453C104.595 57.717 97.2623 58.9931 90.8636 55.0489C97.0029 52.5155 102.706 49.9762 110.208 51.453ZM102.603 95.7631C97.174 100.688 91.2654 100.742 85.5814 95.9689C91.374 94.3701 96.6252 93.1328 102.603 95.7631Z" fill="#60A5FA"/>
</g>
<defs>
<clipPath id="clip0_3_232">
<rect width="140.814" height="164.283" fill="white" transform="matrix(-0.565181 0.824967 0.824967 0.565181 79.5855 0)"/>
</clipPath>
</defs>
</svg>
